# xmcd
#
# Track frame offsets: 
#        150
#        10830
#        27417
#        41649
#        55368
#        63736
#        77202
#        90335
#        110353
#        126245
#        140448
#        162662
#        178412
#        187346
#        199785
#
# Disc length: 2816 seconds
#
# Revision: 0
# Processed by: cddbd v1.5.2PL0 Copyright (c) Steve Scherf et al.
# Submitted via: ExactAudioCopy v0.99pb5
#
DISCID=df0afe0f
DTITLE=Ileana Sararoiu - O batrana intr-o gara
DYEAR=2010
DGENRE=Folklore
TTITLE0=Dar-ar naiba-n tine, dragoste!
TTITLE1=De ce oare, eu te-am cunoscut
TTITLE2=De-ar veni ziua lui mai
TTITLE3=Doi voinici din Valea Mare
TTITLE4=Dorule, caine turbat
TTITLE5=Fir-ar ceasu-afurisit
TTITLE6=Inima, de dor nu stii
TTITLE7=Maica, m-ai crescut de mica
TTITLE8=Nu stiu, neica, ce-am facut
TTITLE9=O batrana intr-o gara
TTITLE10=Pasarica, muta-ti cuibul!
TTITLE11=Pe plaiul Targovistei
TTITLE12=Te iubesc de-o viata-ntreaga
TTITLE13=Ti-o parea, puiule, bine
TTITLE14=Zori de ziua se revarsa
EXTD=
EXTT0=
EXTT1=
EXTT2=
EXTT3=
EXTT4=
EXTT5=
EXTT6=
EXTT7=
EXTT8=
EXTT9=
EXTT10=
EXTT11=
EXTT12=
EXTT13=
EXTT14=
PLAYORDER=
